PathFileType	4	(X/Y/Z)	37_2_48_p0_0-1192.trc
DataRate	CameraRate	NumFrames	NumMarkers	Units	OrigDataRate	OrigDataStartFrame	OrigNumFrames
60.0	60.0	6	27	m	60.0	149	1193
Frame#	Time	RHip			RKnee			RAnkle			RBigToe			RSmallToe			RHeel			LHip			LKnee			LAnkle			LBigToe			LSmallToe			LHeel			Neck			Head			Nose			RShoulder			RElbow			RWrist			RThumb			RIndex			RPinky			LShoulder			LElbow			LWrist			LThumb			LIndex			LPinky			
		X1	Y1	Z1	X2	Y2	Z2	X3	Y3	Z3	X4	Y4	Z4	X5	Y5	Z5	X6	Y6	Z6	X7	Y7	Z7	X8	Y8	Z8	X9	Y9	Z9	X10	Y10	Z10	X11	Y11	Z11	X12	Y12	Z12	X13	Y13	Z13	X14	Y14	Z14	X15	Y15	Z15	X16	Y16	Z16	X17	Y17	Z17	X18	Y18	Z18	X19	Y19	Z19	X20	Y20	Z20	X21	Y21	Z21	X22	Y22	Z22	X23	Y23	Z23	X24	Y24	Z24	X25	Y25	Z25	X26	Y26	Z26	X27	Y27	Z27	
149	2.4833333333333334	0.372540353379422	0.7096152077034139	0.4742342466940655	0.35541895059459905	0.8749291912266135	0.9491027725788184	0.3793289047422192	1.05915855890361	1.3809853155815899	0.32027960453408466	0.8866367716035173	1.434060697259086	0.38425037713491494	0.8788192630216838	1.4330456635352549	0.36818959554889763	1.1830678816654774	1.4291652834226225	0.1788711931696536	0.7852969479942027	0.47507983919001995	0.1864812074948659	0.9394982655836297	0.9379798506257253	0.1798508499275485	1.075782312211592	1.362039563271949	0.17148164030429858	0.8850913772548773	1.4064454841577527	0.12464221420163146	0.9367101034660256	1.4099404621709688	0.20770161726717853	1.1454254337546583	1.4250868374060852	0.2705794814500661	0.542476040538768	-0.055242721458287486	0.22568711021233898	0.4049350455162428	-0.2533193669272942	0.21151852753018055	0.4184506190482873	-0.13481426595173776	0.4204836665050433	0.5409056833054321	0.04680301407070551	0.4785082067425993	0.6140189549176982	0.32271551795623044	0.4076499818025896	0.6645294253489779	0.5768942920737783	0.3215942248947439	0.7165221563248027	0.6797617255208975	0.3403397633040441	0.6767107571433068	0.7123884790575252	0.41150023241763994	0.7213436262783607	0.7141758980182406	0.12631245947831687	0.6474204169076967	0.012689060813047758	0.09575062329509347	0.7270693291916278	0.27248657539967525	0.10360011681279989	0.7184250205549673	0.5278900622720127	0.18129063485734634	0.7099595070218684	0.6245921723417619	0.13638157705089504	0.6753238013306125	0.641747574248963	0.11243554690088849	0.7669731138479	0.6445137062310795
150	2.5	0.3724838994928484	0.7100640875719262	0.47819558711748217	0.35547084053490635	0.8749857566067245	0.9494043011643911	0.38023954044456826	1.0578131592418378	1.3764363438627967	0.3203658866758992	0.887124268462596	1.4341575206895076	0.3842916558481578	0.8791412385840441	1.4330690178254626	0.3682000507507143	1.1831665665768762	1.429137937125756	0.17860316689773884	0.7862837714313892	0.4749395120391403	0.18601714926891827	0.9410067440122151	0.9421233280668548	0.1798891970103096	1.0757037571558905	1.362067710994396	0.17061309447138512	0.8865140487929885	1.4104978776473658	0.12471765070133375	0.9371019155387021	1.4102161511268014	0.20768591743790962	1.1460466986353943	1.4254997274983032	0.27064198208849916	0.5427394369538375	-0.05175831934835707	0.2257014525323062	0.40521123938069636	-0.25328794620426287	0.21143752073995292	0.4184969051814123	-0.13483192395316712	0.42192570227918025	0.5276977156300926	0.048579161913085804	0.47843579582905027	0.6139158816415815	0.3227230693529011	0.4076382898718949	0.6647441294916676	0.576893434249457	0.31997680197695766	0.7337352813492108	0.6812271053778827	0.3398555153680722	0.6778589757092188	0.7155857034371552	0.4115157112313283	0.7216720307734834	0.7140763393631793	0.1263285150472441	0.6474146582370991	0.012735365093303237	0.08771625527569533	0.7410271269367689	0.2718690173759878	0.10367620538243448	0.7186537660735908	0.5316699498425607	0.1813525626662885	0.7099666048112536	0.6243831587067384	0.1389291271431312	0.6614302673279487	0.6408149635296276	0.11214196776101512	0.7661933585109647	0.6442905415734423
151	2.5166666666666666	0.3725137035255787	0.7104642693736313	0.47427939740190544	0.3553202082906112	0.875405131917492	0.9455472571439834	0.3793548201714185	1.0592620605912744	1.3809788389507005	0.3203199674474035	0.887137507233053	1.4341992775961605	0.3842208418841925	0.8790613634855067	1.4330670434071238	0.3681540439051328	1.1831532659804018	1.4291365479938156	0.17863601064672394	0.7859106646915159	0.47502364749061254	0.18574639235042295	0.9414295101320062	0.9422703845105044	0.17979827272840992	1.0755552336370033	1.362001981593906	0.17059703817144709	0.8864129250068281	1.4104820025347182	0.12455882290031133	0.9369982938647085	1.4101625681287449	0.20729134440922012	1.1458442978583394	1.4256825008133027	0.2706215184860295	0.5428637914151841	-0.05161396324629849	0.2255319339209614	0.4048648541501646	-0.2532699250211974	0.21130347368914043	0.41819049565916233	-0.13473044630885372	0.42195725572479875	0.5268753567953287	0.04531254143388149	0.4784240960157776	0.6137556863449426	0.3227400975522596	0.4076210110301319	0.6647772699408433	0.5769384699806211	0.3224120961149189	0.7194052097642784	0.6802360490028274	0.33985867500640143	0.6775177021577848	0.7157637905139298	0.41148713629644473	0.7216872848397629	0.7143259990223364	0.12639390694772318	0.6473586039737164	0.012875696787617555	0.0847085699646813	0.7574803980243517	0.2752175331792267	0.10357635388746315	0.7188837155564662	0.5316572404354157	0.181273829341619	0.7099456449979301	0.6243739881796999	0.13630959023279862	0.6754366805573186	0.6416866109845654	0.11210805479169722	0.767048884411747	0.6443956040122693
152	2.533333333333333	0.3723494092427463	0.7101577358811925	0.4782474841605978	0.3554382908704624	0.8748799667834314	0.9490228188757628	0.38025023425100274	1.0577595401187345	1.3764055933378299	0.32045623263615225	0.8876133260112736	1.4342699968350425	0.3843494413972086	0.8794715008565812	1.4331244003108192	0.36816375394790507	1.1832704946456083	1.4291891282973115	0.17405414521239984	0.7847506577562235	0.4749490441012695	0.1862212964981167	0.9415987807348682	0.9421617790417123	0.17971671414271004	1.07538376649121	1.3618284224808461	0.1705747826004715	0.8864258203711348	1.4105160958607852	0.12441690460504982	0.9374023019538347	1.4103271786218106	0.20747280989361397	1.146059715669267	1.4256237535238898	0.2705307053313181	0.5428210908219084	-0.051576726655691664	0.22145263033703702	0.4035160442641605	-0.25292598198439104	0.21127357795001264	0.41828208995327865	-0.13467051456694937	0.42140918821181783	0.5248883805969561	0.04180974503227465	0.47849400012560056	0.613797960500777	0.3226378230200522	0.4131151486845035	0.6766813965747533	0.5773970673509633	0.3192819350048817	0.731999738238603	0.6770197276027221	0.3398204408095922	0.6780684072015986	0.7155666137881578	0.4109774353137447	0.7231447891365923	0.7134334850153452	0.1263387840596536	0.6471854637194385	0.012931990046415265	0.0837226432925173	0.7568709580052174	0.2715641126910534	0.10309357016032097	0.718941921475723	0.5277666027326082	0.17231290910213984	0.6959568454438272	0.6231749306005243	0.13865400596110197	0.6606266286458777	0.6404715733964728	0.10683798007102437	0.7504109683510656	0.6394270928011163
153	2.55	0.37224513440618884	0.7096807894114343	0.4782148987208519	0.35519660117138446	0.8703877614093944	0.9396499527519727	0.3802891935146122	1.0576995406821876	1.376382032041711	0.3204952651301788	0.8875338568908382	1.4341890699610567	0.38446857475189516	0.8793804856905685	1.433019728961551	0.37262910129741794	1.1846179638084617	1.4297393814667008	0.17323410479433954	0.7814237489845857	0.4706882853511916	0.18708219594104603	0.9403602030970419	0.9381027471382074	0.17969124233278524	1.075565393478894	1.3618135346523117	0.17145878154205668	0.8850703499410926	1.4064542658744223	0.12440636480264755	0.937733675088453	1.4104620965637857	0.20681973474701842	1.143666825046177	1.4212141696676721	0.27073364641954567	0.5424220333530928	-0.05464986550206315	0.22137057250574124	0.40347207037386656	-0.2529356054978621	0.21119089464109833	0.4181969419392234	-0.13459616935617147	0.4220309625622149	0.5270004418911826	0.04532108016498283	0.4784327114039129	0.6137210546315999	0.3227104366755323	0.4076325179649876	0.6648988025053337	0.5767739156128501	0.31925001509393275	0.7315092837357527	0.6768107399616924	0.340394514895447	0.6766444136529772	0.7123310245501215	0.4114598826519556	0.722144376734975	0.709487524312453	0.12185626756204702	0.646046319855998	0.013206877378285062	0.08014950513595646	0.7722290388001711	0.2706541029209728	0.09888147348935208	0.7176170249130387	0.5277003448034868	0.168385786698225	0.6949106945503335	0.6229221592653217	0.1354376599949766	0.6721185821783442	0.6376914405971148	0.10699484260378019	0.7505406627503661	0.639514786383521
154	2.566666666666667	0.3726673579874643	0.7101011789274274	0.47815032916060857	0.35623601735418636	0.8733553007985557	0.9442772653831791	0.3803041571582244	1.0576132865055725	1.3764062590902253	0.3204281595359584	0.8872082013974124	1.4341885997396555	0.3844153635883238	0.8792651846962471	1.4330975998409823	0.3681477646888196	1.1831103186224665	1.4292052034513547	0.17793529715251383	0.7825482940169367	0.4706835000436355	0.1868349355934224	0.9402848723858638	0.9380808823987081	0.17968455107498352	1.0754807825817136	1.361883490420816	0.1715354051075876	0.88499017782618	1.4063734175780165	0.12433350526068171	0.9368035359386406	1.4099477072106228	0.20693974194929063	1.1459641591166752	1.4259009491270198	0.2705716001244787	0.542919217789936	-0.05142611054281414	0.2213238954666766	0.403412239891444	-0.2530554576237734	0.21115186627796395	0.4181299860436796	-0.1345703127696463	0.4221157584465264	0.5266757437092445	0.04529020954934796	0.4800414454207291	0.598826410991162	0.31980050014451405	0.4076295743980096	0.6648337521775606	0.5768078454495321	0.3201586800643181	0.734208799249585	0.6808438260762253	0.34040816198055945	0.6768714564575029	0.7123874859283781	0.41153176748702514	0.7219714126292079	0.7096480741402633	0.1263099883228274	0.6469593154806147	0.012998236259237576	0.07527204162965045	0.7699428952159957	0.262790277387405	0.09864245563911701	0.7174129494668776	0.5275559319701187	0.16535233191233534	0.7089438498354226	0.6201508909158786	0.13327598708428567	0.6861605600818611	0.6355457467144433	0.10682672587117661	0.7510700062307935	0.6394824040077376
